<?xml version="1.0" encoding="UTF-8" standalone="no"?>
<!DOCTYPE svg PUBLIC "-//W3C//DTD SVG 1.0//EN"
 "http://www.w3.org/TR/2001/REC-SVG-20010904/DTD/svg10.dtd" [
 <!ATTLIST svg xmlns:xlink CDATA #FIXED "http://www.w3.org/1999/xlink">
]>
<!-- Generated by Graphviz version 2.18 (Wed Aug &#160;6 10:29:47 UTC 2008)
     For user: (wes) Wes,,,, -->
<!-- Title: name Pages: 1 -->
<svg width="759pt" height="852pt"
 viewBox="0.00 0.00 759.00 852.00" xmlns="http://www.w3.org/2000/svg" xmlns:xlink="http://www.w3.org/1999/xlink">
<g id="graph0" class="graph" transform="scale(1 1) rotate(0) translate(4 848)">
<title>name</title>
<polygon style="fill:white;stroke:white;" points="-4,4 -4,-848 755,-848 755,4 -4,4"/>
<!-- tiger_models_User -->
<g id="node1" class="node"><title>tiger_models_User</title>
<polygon style="fill:#d3dbeb;stroke:#d3dbeb;" points="199,-4 199,-68 299,-68 299,-4 199,-4"/>
<polygon style="fill:#374c76;stroke:#374c76;" points="199,-52 199,-68 299,-68 299,-52 199,-52"/>
<text text-anchor="middle" x="249" y="-58.1333" style="font-family:Helvetica Bold;font-size:8.00;fill:white;">User</text>
<text text-anchor="middle" x="205" y="-44.1333" style="font-family:Helvetica Bold;font-size:8.00;fill:#7b7b7b;">id</text>
<text text-anchor="middle" x="263.5" y="-44.1333" style="font-family:Helvetica Bold;font-size:8.00;fill:#7b7b7b;">AutoField</text>
<text text-anchor="middle" x="220" y="-32.1333" style="font-family:Helvetica Bold;font-size:8.00;">username</text>
<text text-anchor="middle" x="263" y="-32.1333" style="font-family:Helvetica Bold;font-size:8.00;">CharField</text>
<text text-anchor="middle" x="220" y="-20.1333" style="font-family:Helvetica Bold;font-size:8.00;">password</text>
<text text-anchor="middle" x="263" y="-20.1333" style="font-family:Helvetica Bold;font-size:8.00;">CharField</text>
<text text-anchor="middle" x="218.5" y="-8.13333" style="font-family:Helvetica Bold;font-size:8.00;fill:#7b7b7b;">is_active</text>
<text text-anchor="middle" x="270.5" y="-8.13333" style="font-family:Helvetica Bold;font-size:8.00;fill:#7b7b7b;">BooleanField</text>
</g>
<!-- tiger_models_Person -->
<g id="node2" class="node"><title>tiger_models_Person</title>
<polygon style="fill:#d3dbeb;stroke:#d3dbeb;" points="177,-122 177,-282 321,-282 321,-122 177,-122"/>
<polygon style="fill:#374c76;stroke:#374c76;" points="177,-266 177,-282 321,-282 321,-266 177,-266"/>
<text text-anchor="middle" x="249" y="-272.133" style="font-family:Helvetica Bold;font-size:8.00;fill:white;">Person</text>
<text text-anchor="middle" x="183" y="-258.133" style="font-family:Helvetica Bold;font-size:8.00;fill:#7b7b7b;">id</text>
<text text-anchor="middle" x="262.5" y="-258.133" style="font-family:Helvetica Bold;font-size:8.00;fill:#7b7b7b;">AutoField</text>
<text text-anchor="middle" x="199.5" y="-246.133" style="font-family:Helvetica Bold;font-size:8.00;">first_name</text>
<text text-anchor="middle" x="262" y="-246.133" style="font-family:Helvetica Bold;font-size:8.00;">CharField</text>
<text text-anchor="middle" x="205" y="-234.133" style="font-family:Helvetica Bold;font-size:8.00;">middle_name</text>
<text text-anchor="middle" x="262" y="-234.133" style="font-family:Helvetica Bold;font-size:8.00;">CharField</text>
<text text-anchor="middle" x="199" y="-222.133" style="font-family:Helvetica Bold;font-size:8.00;">last_name</text>
<text text-anchor="middle" x="262" y="-222.133" style="font-family:Helvetica Bold;font-size:8.00;">CharField</text>
<text text-anchor="middle" x="192.5" y="-210.133" style="font-family:Helvetica Bold;font-size:8.00;">addr_1</text>
<text text-anchor="middle" x="262" y="-210.133" style="font-family:Helvetica Bold;font-size:8.00;">CharField</text>
<text text-anchor="middle" x="192.5" y="-198.133" style="font-family:Helvetica Bold;font-size:8.00;">addr_2</text>
<text text-anchor="middle" x="262" y="-198.133" style="font-family:Helvetica Bold;font-size:8.00;">CharField</text>
<text text-anchor="middle" x="186" y="-186.133" style="font-family:Helvetica Bold;font-size:8.00;">city</text>
<text text-anchor="middle" x="262" y="-186.133" style="font-family:Helvetica Bold;font-size:8.00;">CharField</text>
<text text-anchor="middle" x="189" y="-174.133" style="font-family:Helvetica Bold;font-size:8.00;">state</text>
<text text-anchor="middle" x="268.5" y="-174.133" style="font-family:Helvetica Bold;font-size:8.00;">USStateField</text>
<text text-anchor="middle" x="196.5" y="-162.133" style="font-family:Helvetica Bold;font-size:8.00;">zip_code</text>
<text text-anchor="middle" x="262" y="-162.133" style="font-family:Helvetica Bold;font-size:8.00;">CharField</text>
<text text-anchor="middle" x="209" y="-150.133" style="font-family:Helvetica Bold;font-size:8.00;">phone_number</text>
<text text-anchor="middle" x="281" y="-150.133" style="font-family:Helvetica Bold;font-size:8.00;">PhoneNumberField</text>
<text text-anchor="middle" x="189" y="-138.133" style="font-family:Helvetica Bold;font-size:8.00;">email</text>
<text text-anchor="middle" x="263.5" y="-138.133" style="font-family:Helvetica Bold;font-size:8.00;">EmailField</text>
<text text-anchor="middle" x="187.5" y="-126.133" style="font-family:Helvetica Bold;font-size:8.00;">user</text>
<text text-anchor="middle" x="274" y="-126.133" style="font-family:Helvetica Bold;font-size:8.00;">OneToOneField</text>
</g>
<!-- tiger_models_Person&#45;&gt;tiger_models_User -->
<g id="edge2" class="edge"><title>tiger_models_Person&#45;&gt;tiger_models_User</title>
<path style="fill:none;stroke:black;" d="M249,-118C249,-106 249,-94 249,-82"/>
<polygon style="fill:black;stroke:black;" points="252.5,-82 249,-72 245.5,-82 252.5,-82"/>
<text text-anchor="middle" x="258" y="-92.8" style="font-family:Arial;font-size:8.00;">user</text>
</g>
<!-- tiger_models_Instructor -->
<g id="node3" class="node"><title>tiger_models_Instructor</title>
<polygon style="fill:#d3dbeb;stroke:#d3dbeb;" points="8,-336 8,-508 152,-508 152,-336 8,-336"/>
<polygon style="fill:#374c76;stroke:#374c76;" points="8,-492 8,-508 152,-508 152,-492 8,-492"/>
<text text-anchor="middle" x="80" y="-498.133" style="font-family:Helvetica Bold;font-size:8.00;fill:white;">Instructor</text>
<text text-anchor="middle" x="14" y="-484.133" style="font-family:Helvetica Bold;font-size:8.00;fill:#7b7b7b;">id</text>
<text text-anchor="middle" x="93.5" y="-484.133" style="font-family:Helvetica Bold;font-size:8.00;fill:#7b7b7b;">AutoField</text>
<text text-anchor="middle" x="30.5" y="-472.133" style="font-family:Helvetica Bold;font-size:8.00;">first_name</text>
<text text-anchor="middle" x="93" y="-472.133" style="font-family:Helvetica Bold;font-size:8.00;">CharField</text>
<text text-anchor="middle" x="36" y="-460.133" style="font-family:Helvetica Bold;font-size:8.00;">middle_name</text>
<text text-anchor="middle" x="93" y="-460.133" style="font-family:Helvetica Bold;font-size:8.00;">CharField</text>
<text text-anchor="middle" x="30" y="-448.133" style="font-family:Helvetica Bold;font-size:8.00;">last_name</text>
<text text-anchor="middle" x="93" y="-448.133" style="font-family:Helvetica Bold;font-size:8.00;">CharField</text>
<text text-anchor="middle" x="23.5" y="-436.133" style="font-family:Helvetica Bold;font-size:8.00;">addr_1</text>
<text text-anchor="middle" x="93" y="-436.133" style="font-family:Helvetica Bold;font-size:8.00;">CharField</text>
<text text-anchor="middle" x="23.5" y="-424.133" style="font-family:Helvetica Bold;font-size:8.00;">addr_2</text>
<text text-anchor="middle" x="93" y="-424.133" style="font-family:Helvetica Bold;font-size:8.00;">CharField</text>
<text text-anchor="middle" x="17" y="-412.133" style="font-family:Helvetica Bold;font-size:8.00;">city</text>
<text text-anchor="middle" x="93" y="-412.133" style="font-family:Helvetica Bold;font-size:8.00;">CharField</text>
<text text-anchor="middle" x="20" y="-400.133" style="font-family:Helvetica Bold;font-size:8.00;">state</text>
<text text-anchor="middle" x="99.5" y="-400.133" style="font-family:Helvetica Bold;font-size:8.00;">USStateField</text>
<text text-anchor="middle" x="27.5" y="-388.133" style="font-family:Helvetica Bold;font-size:8.00;">zip_code</text>
<text text-anchor="middle" x="93" y="-388.133" style="font-family:Helvetica Bold;font-size:8.00;">CharField</text>
<text text-anchor="middle" x="40" y="-376.133" style="font-family:Helvetica Bold;font-size:8.00;">phone_number</text>
<text text-anchor="middle" x="112" y="-376.133" style="font-family:Helvetica Bold;font-size:8.00;">PhoneNumberField</text>
<text text-anchor="middle" x="20" y="-364.133" style="font-family:Helvetica Bold;font-size:8.00;">email</text>
<text text-anchor="middle" x="94.5" y="-364.133" style="font-family:Helvetica Bold;font-size:8.00;">EmailField</text>
<text text-anchor="middle" x="18.5" y="-352.133" style="font-family:Helvetica Bold;font-size:8.00;">user</text>
<text text-anchor="middle" x="105" y="-352.133" style="font-family:Helvetica Bold;font-size:8.00;">OneToOneField</text>
<text text-anchor="middle" x="32" y="-340.133" style="font-family:Helvetica Bold;font-size:8.00;">person_ptr</text>
<text text-anchor="middle" x="105" y="-340.133" style="font-family:Helvetica Bold;font-size:8.00;">OneToOneField</text>
</g>
<!-- tiger_models_Instructor&#45;&gt;tiger_models_User -->
<g id="edge4" class="edge"><title>tiger_models_Instructor&#45;&gt;tiger_models_User</title>
<path style="fill:none;stroke:black;" d="M82,-332C88,-268 103,-182 143,-118 153,-102 168,-87 183,-75"/>
<polygon style="fill:black;stroke:black;" points="185.1,-77.8 191,-69 180.9,-72.2 185.1,-77.8"/>
<text text-anchor="middle" x="152" y="-199.8" style="font-family:Arial;font-size:8.00;">user</text>
</g>
<!-- tiger_models_Instructor&#45;&gt;tiger_models_Person -->
<g id="edge6" class="edge"><title>tiger_models_Instructor&#45;&gt;tiger_models_Person</title>
<path style="fill:none;stroke:black;" d="M149,-332C159,-320 169,-307 178,-294"/>
<polygon style="fill:black;stroke:black;" points="180.8,-296.1 184,-286 175.2,-291.9 180.8,-296.1"/>
<text text-anchor="middle" x="191" y="-306.8" style="font-family:Arial;font-size:8.00;">person_ptr</text>
</g>
<!-- tiger_models_Client -->
<g id="node4" class="node"><title>tiger_models_Client</title>
<polygon style="fill:#d3dbeb;stroke:#d3dbeb;" points="312,-336 312,-508 456,-508 456,-336 312,-336"/>
<polygon style="fill:#374c76;stroke:#374c76;" points="312,-492 312,-508 456,-508 456,-492 312,-492"/>
<text text-anchor="middle" x="384" y="-498.133" style="font-family:Helvetica Bold;font-size:8.00;fill:white;">Client</text>
<text text-anchor="middle" x="318" y="-484.133" style="font-family:Helvetica Bold;font-size:8.00;fill:#7b7b7b;">id</text>
<text text-anchor="middle" x="397.5" y="-484.133" style="font-family:Helvetica Bold;font-size:8.00;fill:#7b7b7b;">AutoField</text>
<text text-anchor="middle" x="334.5" y="-472.133" style="font-family:Helvetica Bold;font-size:8.00;">first_name</text>
<text text-anchor="middle" x="397" y="-472.133" style="font-family:Helvetica Bold;font-size:8.00;">CharField</text>
<text text-anchor="middle" x="340" y="-460.133" style="font-family:Helvetica Bold;font-size:8.00;">middle_name</text>
<text text-anchor="middle" x="397" y="-460.133" style="font-family:Helvetica Bold;font-size:8.00;">CharField</text>
<text text-anchor="middle" x="334" y="-448.133" style="font-family:Helvetica Bold;font-size:8.00;">last_name</text>
<text text-anchor="middle" x="397" y="-448.133" style="font-family:Helvetica Bold;font-size:8.00;">CharField</text>
<text text-anchor="middle" x="327.5" y="-436.133" style="font-family:Helvetica Bold;font-size:8.00;">addr_1</text>
<text text-anchor="middle" x="397" y="-436.133" style="font-family:Helvetica Bold;font-size:8.00;">CharField</text>
<text text-anchor="middle" x="327.5" y="-424.133" style="font-family:Helvetica Bold;font-size:8.00;">addr_2</text>
<text text-anchor="middle" x="397" y="-424.133" style="font-family:Helvetica Bold;font-size:8.00;">CharField</text>
<text text-anchor="middle" x="321" y="-412.133" style="font-family:Helvetica Bold;font-size:8.00;">city</text>
<text text-anchor="middle" x="397" y="-412.133" style="font-family:Helvetica Bold;font-size:8.00;">CharField</text>
<text text-anchor="middle" x="324" y="-400.133" style="font-family:Helvetica Bold;font-size:8.00;">state</text>
<text text-anchor="middle" x="403.5" y="-400.133" style="font-family:Helvetica Bold;font-size:8.00;">USStateField</text>
<text text-anchor="middle" x="331.5" y="-388.133" style="font-family:Helvetica Bold;font-size:8.00;">zip_code</text>
<text text-anchor="middle" x="397" y="-388.133" style="font-family:Helvetica Bold;font-size:8.00;">CharField</text>
<text text-anchor="middle" x="344" y="-376.133" style="font-family:Helvetica Bold;font-size:8.00;">phone_number</text>
<text text-anchor="middle" x="416" y="-376.133" style="font-family:Helvetica Bold;font-size:8.00;">PhoneNumberField</text>
<text text-anchor="middle" x="324" y="-364.133" style="font-family:Helvetica Bold;font-size:8.00;">email</text>
<text text-anchor="middle" x="398.5" y="-364.133" style="font-family:Helvetica Bold;font-size:8.00;">EmailField</text>
<text text-anchor="middle" x="322.5" y="-352.133" style="font-family:Helvetica Bold;font-size:8.00;">user</text>
<text text-anchor="middle" x="409" y="-352.133" style="font-family:Helvetica Bold;font-size:8.00;">OneToOneField</text>
<text text-anchor="middle" x="336" y="-340.133" style="font-family:Helvetica Bold;font-size:8.00;">person_ptr</text>
<text text-anchor="middle" x="409" y="-340.133" style="font-family:Helvetica Bold;font-size:8.00;">OneToOneField</text>
</g>
<!-- tiger_models_Client&#45;&gt;tiger_models_User -->
<g id="edge8" class="edge"><title>tiger_models_Client&#45;&gt;tiger_models_User</title>
<path style="fill:none;stroke:black;" d="M386,-332C383,-268 373,-184 338,-118 331,-104 320,-91 308,-79"/>
<polygon style="fill:black;stroke:black;" points="309.831,-75.9511 300,-72 305.221,-81.2191 309.831,-75.9511"/>
<text text-anchor="middle" x="390" y="-199.8" style="font-family:Arial;font-size:8.00;">user</text>
</g>
<!-- tiger_models_Client&#45;&gt;tiger_models_Person -->
<g id="edge10" class="edge"><title>tiger_models_Client&#45;&gt;tiger_models_Person</title>
<path style="fill:none;stroke:black;" d="M329,-332C322,-320 314,-307 306,-295"/>
<polygon style="fill:black;stroke:black;" points="308.916,-293.042 301,-286 302.797,-296.441 308.916,-293.042"/>
<text text-anchor="middle" x="337" y="-306.8" style="font-family:Arial;font-size:8.00;">person_ptr</text>
</g>
<!-- tiger_models_Course -->
<g id="node5" class="node"><title>tiger_models_Course</title>
<polygon style="fill:#d3dbeb;stroke:#d3dbeb;" points="186,-390 186,-454 278,-454 278,-390 186,-390"/>
<polygon style="fill:#374c76;stroke:#374c76;" points="186,-438 186,-454 278,-454 278,-438 186,-438"/>
<text text-anchor="middle" x="232" y="-444.133" style="font-family:Helvetica Bold;font-size:8.00;fill:white;">Course</text>
<text text-anchor="middle" x="192" y="-430.133" style="font-family:Helvetica Bold;font-size:8.00;fill:#7b7b7b;">id</text>
<text text-anchor="middle" x="256.5" y="-430.133" style="font-family:Helvetica Bold;font-size:8.00;fill:#7b7b7b;">AutoField</text>
<text text-anchor="middle" x="198.5" y="-418.133" style="font-family:Helvetica Bold;font-size:8.00;">name</text>
<text text-anchor="middle" x="256" y="-418.133" style="font-family:Helvetica Bold;font-size:8.00;">CharField</text>
<text text-anchor="middle" x="202.5" y="-406.133" style="font-family:Helvetica Bold;font-size:8.00;">subject</text>
<text text-anchor="middle" x="256" y="-406.133" style="font-family:Helvetica Bold;font-size:8.00;">CharField</text>
<text text-anchor="middle" x="210.5" y="-394.133" style="font-family:Helvetica Bold;font-size:8.00;">description</text>
<text text-anchor="middle" x="255.5" y="-394.133" style="font-family:Helvetica Bold;font-size:8.00;">TextField</text>
</g>
<!-- tiger_models_TimeWindow -->
<g id="node6" class="node"><title>tiger_models_TimeWindow</title>
<polygon style="fill:#d3dbeb;stroke:#d3dbeb;" points="495,-390 495,-454 591,-454 591,-390 495,-390"/>
<polygon style="fill:#374c76;stroke:#374c76;" points="495,-438 495,-454 591,-454 591,-438 495,-438"/>
<text text-anchor="middle" x="543" y="-444.133" style="font-family:Helvetica Bold;font-size:8.00;fill:white;">TimeWindow</text>
<text text-anchor="middle" x="501" y="-430.133" style="font-family:Helvetica Bold;font-size:8.00;fill:#7b7b7b;">id</text>
<text text-anchor="middle" x="552.5" y="-430.133" style="font-family:Helvetica Bold;font-size:8.00;fill:#7b7b7b;">AutoField</text>
<text text-anchor="middle" x="512.5" y="-418.133" style="font-family:Helvetica Bold;font-size:8.00;">starting</text>
<text text-anchor="middle" x="561" y="-418.133" style="font-family:Helvetica Bold;font-size:8.00;">DateTimeField</text>
<text text-anchor="middle" x="511" y="-406.133" style="font-family:Helvetica Bold;font-size:8.00;">ending</text>
<text text-anchor="middle" x="561" y="-406.133" style="font-family:Helvetica Bold;font-size:8.00;">DateTimeField</text>
<text text-anchor="middle" x="506.5" y="-394.133" style="font-family:Helvetica Bold;font-size:8.00;fill:#7b7b7b;">valid</text>
<text text-anchor="middle" x="559.5" y="-394.133" style="font-family:Helvetica Bold;font-size:8.00;fill:#7b7b7b;">BooleanField</text>
</g>
<!-- tiger_models_InstructorAvailability -->
<g id="node7" class="node"><title>tiger_models_InstructorAvailability</title>
<polygon style="fill:#d3dbeb;stroke:#d3dbeb;" points="171,-586 171,-650 293,-650 293,-586 171,-586"/>
<polygon style="fill:#374c76;stroke:#374c76;" points="171,-634 171,-650 293,-650 293,-634 171,-634"/>
<text text-anchor="middle" x="232" y="-640.133" style="font-family:Helvetica Bold;font-size:8.00;fill:white;">InstructorAvailability</text>
<text text-anchor="middle" x="177" y="-626.133" style="font-family:Helvetica Bold;font-size:8.00;fill:#7b7b7b;">id</text>
<text text-anchor="middle" x="238.5" y="-626.133" style="font-family:Helvetica Bold;font-size:8.00;fill:#7b7b7b;">AutoField</text>
<text text-anchor="middle" x="192.5" y="-614.133" style="font-family:Helvetica Bold;font-size:8.00;">instructor</text>
<text text-anchor="middle" x="242" y="-614.133" style="font-family:Helvetica Bold;font-size:8.00;">ForeignKey</text>
<text text-anchor="middle" x="194" y="-602.133" style="font-family:Helvetica Bold;font-size:8.00;">availability</text>
<text text-anchor="middle" x="255" y="-602.133" style="font-family:Helvetica Bold;font-size:8.00;">ManyToManyField</text>
<text text-anchor="middle" x="189" y="-590.133" style="font-family:Helvetica Bold;font-size:8.00;">courses</text>
<text text-anchor="middle" x="255" y="-590.133" style="font-family:Helvetica Bold;font-size:8.00;">ManyToManyField</text>
</g>
<!-- tiger_models_InstructorAvailability&#45;&gt;tiger_models_Instructor -->
<g id="edge12" class="edge"><title>tiger_models_InstructorAvailability&#45;&gt;tiger_models_Instructor</title>
<path style="fill:none;stroke:black;" d="M204,-582C191,-564 173,-542 156,-520"/>
<polygon style="fill:black;stroke:black;" points="158.8,-517.9 150,-512 153.2,-522.1 158.8,-517.9"/>
<text text-anchor="middle" x="189" y="-532.8" style="font-family:Arial;font-size:8.00;">instructor</text>
</g>
<!-- tiger_models_InstructorAvailability&#45;&gt;tiger_models_Course -->
<g id="edge16" class="edge"><title>tiger_models_InstructorAvailability&#45;&gt;tiger_models_Course</title>
<path style="fill:none;stroke:black;" d="M232,-572C232,-541 232,-499 232,-468"/>
<polygon style="fill:black;stroke:black;" points="228.5,-572 232,-582 235.5,-572 228.5,-572"/>
<polygon style="fill:black;stroke:black;" points="235.5,-468 232,-458 228.5,-468 235.5,-468"/>
<text text-anchor="middle" x="247" y="-532.8" style="font-family:Arial;font-size:8.00;">courses</text>
</g>
<!-- tiger_models_InstructorAvailability&#45;&gt;tiger_models_TimeWindow -->
<g id="edge14" class="edge"><title>tiger_models_InstructorAvailability&#45;&gt;tiger_models_TimeWindow</title>
<path style="fill:none;stroke:black;" d="M285,-576C295,-569 305,-563 315,-558 335,-546 342,-548 365,-540 376,-535 379,-533 391,-530 426,-519 441,-531 473,-512 490,-500 505,-483 517,-467"/>
<polygon style="fill:black;stroke:black;" points="282.9,-573.2 277,-582 287.1,-578.8 282.9,-573.2"/>
<polygon style="fill:black;stroke:black;" points="520.365,-468.262 523,-458 514.541,-464.379 520.365,-468.262"/>
<text text-anchor="middle" x="409" y="-532.8" style="font-family:Arial;font-size:8.00;">availability</text>
</g>
<!-- tiger_models_CourseRequest -->
<g id="node8" class="node"><title>tiger_models_CourseRequest</title>
<polygon style="fill:#d3dbeb;stroke:#d3dbeb;" points="382,-580 382,-656 504,-656 504,-580 382,-580"/>
<polygon style="fill:#374c76;stroke:#374c76;" points="382,-640 382,-656 504,-656 504,-640 382,-640"/>
<text text-anchor="middle" x="443" y="-646.133" style="font-family:Helvetica Bold;font-size:8.00;fill:white;">CourseRequest</text>
<text text-anchor="middle" x="388" y="-632.133" style="font-family:Helvetica Bold;font-size:8.00;fill:#7b7b7b;">id</text>
<text text-anchor="middle" x="449.5" y="-632.133" style="font-family:Helvetica Bold;font-size:8.00;fill:#7b7b7b;">AutoField</text>
<text text-anchor="middle" x="395" y="-620.133" style="font-family:Helvetica Bold;font-size:8.00;">client</text>
<text text-anchor="middle" x="453" y="-620.133" style="font-family:Helvetica Bold;font-size:8.00;">ForeignKey</text>
<text text-anchor="middle" x="397.5" y="-608.133" style="font-family:Helvetica Bold;font-size:8.00;">course</text>
<text text-anchor="middle" x="453" y="-608.133" style="font-family:Helvetica Bold;font-size:8.00;">ForeignKey</text>
<text text-anchor="middle" x="396.5" y="-596.133" style="font-family:Helvetica Bold;font-size:8.00;">status</text>
<text text-anchor="middle" x="453.5" y="-596.133" style="font-family:Helvetica Bold;font-size:8.00;">IntegerField</text>
<text text-anchor="middle" x="405" y="-584.133" style="font-family:Helvetica Bold;font-size:8.00;">availability</text>
<text text-anchor="middle" x="466" y="-584.133" style="font-family:Helvetica Bold;font-size:8.00;">ManyToManyField</text>
</g>
<!-- tiger_models_CourseRequest&#45;&gt;tiger_models_Client -->
<g id="edge18" class="edge"><title>tiger_models_CourseRequest&#45;&gt;tiger_models_Client</title>
<path style="fill:none;stroke:black;" d="M440,-576C438,-561 436,-544 432,-530 431,-527 430,-524 429,-522"/>
<polygon style="fill:black;stroke:black;" points="432.226,-520.573 426,-512 425.521,-522.584 432.226,-520.573"/>
<text text-anchor="middle" x="442" y="-532.8" style="font-family:Arial;font-size:8.00;">client</text>
</g>
<!-- tiger_models_CourseRequest&#45;&gt;tiger_models_Course -->
<g id="edge20" class="edge"><title>tiger_models_CourseRequest&#45;&gt;tiger_models_Course</title>
<path style="fill:none;stroke:black;" d="M385,-576C377,-570 368,-564 360,-558 331,-537 320,-537 295,-512 282,-499 270,-482 260,-467"/>
<polygon style="fill:black;stroke:black;" points="262.459,-464.379 254,-458 256.635,-468.262 262.459,-464.379"/>
<text text-anchor="middle" x="348" y="-532.8" style="font-family:Arial;font-size:8.00;">course</text>
</g>
<!-- tiger_models_CourseRequest&#45;&gt;tiger_models_TimeWindow -->
<g id="edge22" class="edge"><title>tiger_models_CourseRequest&#45;&gt;tiger_models_TimeWindow</title>
<path style="fill:none;stroke:black;" d="M469,-567C484,-536 504,-497 519,-467"/>
<polygon style="fill:black;stroke:black;" points="465.797,-565.559 464,-576 471.916,-568.958 465.797,-565.559"/>
<polygon style="fill:black;stroke:black;" points="522.203,-468.441 524,-458 516.084,-465.042 522.203,-468.441"/>
<text text-anchor="middle" x="504" y="-532.8" style="font-family:Arial;font-size:8.00;">availability</text>
</g>
<!-- tiger_models_CourseSession -->
<g id="node9" class="node"><title>tiger_models_CourseSession</title>
<polygon style="fill:#d3dbeb;stroke:#d3dbeb;" points="611,-562 611,-674 743,-674 743,-562 611,-562"/>
<polygon style="fill:#374c76;stroke:#374c76;" points="611,-658 611,-674 743,-674 743,-658 611,-658"/>
<text text-anchor="middle" x="677" y="-664.133" style="font-family:Helvetica Bold;font-size:8.00;fill:white;">CourseSession</text>
<text text-anchor="middle" x="617" y="-650.133" style="font-family:Helvetica Bold;font-size:8.00;fill:#7b7b7b;">id</text>
<text text-anchor="middle" x="698.5" y="-650.133" style="font-family:Helvetica Bold;font-size:8.00;fill:#7b7b7b;">AutoField</text>
<text text-anchor="middle" x="628.5" y="-638.133" style="font-family:Helvetica Bold;font-size:8.00;">starting</text>
<text text-anchor="middle" x="707" y="-638.133" style="font-family:Helvetica Bold;font-size:8.00;">DateTimeField</text>
<text text-anchor="middle" x="627" y="-626.133" style="font-family:Helvetica Bold;font-size:8.00;">ending</text>
<text text-anchor="middle" x="707" y="-626.133" style="font-family:Helvetica Bold;font-size:8.00;">DateTimeField</text>
<text text-anchor="middle" x="622.5" y="-614.133" style="font-family:Helvetica Bold;font-size:8.00;fill:#7b7b7b;">valid</text>
<text text-anchor="middle" x="705.5" y="-614.133" style="font-family:Helvetica Bold;font-size:8.00;fill:#7b7b7b;">BooleanField</text>
<text text-anchor="middle" x="644" y="-602.133" style="font-family:Helvetica Bold;font-size:8.00;">timewindow_ptr</text>
<text text-anchor="middle" x="710" y="-602.133" style="font-family:Helvetica Bold;font-size:8.00;">OneToOneField</text>
<text text-anchor="middle" x="629" y="-590.133" style="font-family:Helvetica Bold;font-size:8.00;">location</text>
<text text-anchor="middle" x="697.5" y="-590.133" style="font-family:Helvetica Bold;font-size:8.00;">TextField</text>
<text text-anchor="middle" x="635.5" y="-578.133" style="font-family:Helvetica Bold;font-size:8.00;">description</text>
<text text-anchor="middle" x="697.5" y="-578.133" style="font-family:Helvetica Bold;font-size:8.00;">TextField</text>
<text text-anchor="middle" x="624.5" y="-566.133" style="font-family:Helvetica Bold;font-size:8.00;">notes</text>
<text text-anchor="middle" x="697.5" y="-566.133" style="font-family:Helvetica Bold;font-size:8.00;">TextField</text>
</g>
<!-- tiger_models_CourseSession&#45;&gt;tiger_models_TimeWindow -->
<g id="edge24" class="edge"><title>tiger_models_CourseSession&#45;&gt;tiger_models_TimeWindow</title>
<path style="fill:none;stroke:black;" d="M636,-558C615,-528 592,-494 574,-467"/>
<polygon style="fill:black;stroke:black;" points="576.459,-464.379 568,-458 570.635,-468.262 576.459,-464.379"/>
<text text-anchor="middle" x="650" y="-532.8" style="font-family:Arial;font-size:8.00;">timewindow_ptr</text>
</g>
<!-- tiger_models_CourseSchedule -->
<g id="node10" class="node"><title>tiger_models_CourseSchedule</title>
<polygon style="fill:#d3dbeb;stroke:#d3dbeb;" points="294,-728 294,-840 448,-840 448,-728 294,-728"/>
<polygon style="fill:#374c76;stroke:#374c76;" points="294,-824 294,-840 448,-840 448,-824 294,-824"/>
<text text-anchor="middle" x="371" y="-830.133" style="font-family:Helvetica Bold;font-size:8.00;fill:white;">CourseSchedule</text>
<text text-anchor="middle" x="300" y="-816.133" style="font-family:Helvetica Bold;font-size:8.00;fill:#7b7b7b;">id</text>
<text text-anchor="middle" x="393.5" y="-816.133" style="font-family:Helvetica Bold;font-size:8.00;fill:#7b7b7b;">AutoField</text>
<text text-anchor="middle" x="307" y="-804.133" style="font-family:Helvetica Bold;font-size:8.00;">client</text>
<text text-anchor="middle" x="397" y="-804.133" style="font-family:Helvetica Bold;font-size:8.00;">ForeignKey</text>
<text text-anchor="middle" x="309.5" y="-792.133" style="font-family:Helvetica Bold;font-size:8.00;">course</text>
<text text-anchor="middle" x="397" y="-792.133" style="font-family:Helvetica Bold;font-size:8.00;">ForeignKey</text>
<text text-anchor="middle" x="308.5" y="-780.133" style="font-family:Helvetica Bold;font-size:8.00;">status</text>
<text text-anchor="middle" x="397.5" y="-780.133" style="font-family:Helvetica Bold;font-size:8.00;">IntegerField</text>
<text text-anchor="middle" x="332.5" y="-768.133" style="font-family:Helvetica Bold;font-size:8.00;">courserequest_ptr</text>
<text text-anchor="middle" x="405" y="-768.133" style="font-family:Helvetica Bold;font-size:8.00;">OneToOneField</text>
<text text-anchor="middle" x="315.5" y="-756.133" style="font-family:Helvetica Bold;font-size:8.00;">instructor</text>
<text text-anchor="middle" x="397" y="-756.133" style="font-family:Helvetica Bold;font-size:8.00;">ForeignKey</text>
<text text-anchor="middle" x="317" y="-744.133" style="font-family:Helvetica Bold;font-size:8.00;">availability</text>
<text text-anchor="middle" x="410" y="-744.133" style="font-family:Helvetica Bold;font-size:8.00;">ManyToManyField</text>
<text text-anchor="middle" x="313.5" y="-732.133" style="font-family:Helvetica Bold;font-size:8.00;">sessions</text>
<text text-anchor="middle" x="410" y="-732.133" style="font-family:Helvetica Bold;font-size:8.00;">ManyToManyField</text>
</g>
<!-- tiger_models_CourseSchedule&#45;&gt;tiger_models_Instructor -->
<g id="edge32" class="edge"><title>tiger_models_CourseSchedule&#45;&gt;tiger_models_Instructor</title>
<path style="fill:none;stroke:black;" d="M286,-765C207,-746 97,-714 72,-678 42,-633 42,-573 50,-522"/>
<polygon style="fill:black;stroke:black;" points="53.4708,-522.492 52,-512 46.6067,-521.119 53.4708,-522.492"/>
<text text-anchor="middle" x="93" y="-615.8" style="font-family:Arial;font-size:8.00;">instructor</text>
</g>
<!-- tiger_models_CourseSchedule&#45;&gt;tiger_models_Client -->
<g id="edge26" class="edge"><title>tiger_models_CourseSchedule&#45;&gt;tiger_models_Client</title>
<path style="fill:none;stroke:black;" d="M346,-724C329,-672 310,-595 326,-530 326,-527 327,-524 328,-522"/>
<polygon style="fill:black;stroke:black;" points="331.479,-522.584 331,-512 324.774,-520.573 331.479,-522.584"/>
<text text-anchor="middle" x="341" y="-615.8" style="font-family:Arial;font-size:8.00;">client</text>
</g>
<!-- tiger_models_CourseSchedule&#45;&gt;tiger_models_Course -->
<g id="edge28" class="edge"><title>tiger_models_CourseSchedule&#45;&gt;tiger_models_Course</title>
<path style="fill:none;stroke:black;" d="M286,-771C231,-757 163,-731 128,-678 99,-633 110,-607 128,-558 138,-532 153,-533 169,-512 181,-498 192,-481 202,-467"/>
<polygon style="fill:black;stroke:black;" points="205.365,-468.262 208,-458 199.541,-464.379 205.365,-468.262"/>
<text text-anchor="middle" x="141" y="-615.8" style="font-family:Arial;font-size:8.00;">course</text>
</g>
<!-- tiger_models_CourseSchedule&#45;&gt;tiger_models_TimeWindow -->
<g id="edge34" class="edge"><title>tiger_models_CourseSchedule&#45;&gt;tiger_models_TimeWindow</title>
<path style="fill:none;stroke:black;" d="M464,-736C487,-720 508,-701 521,-678 558,-612 555,-522 550,-468"/>
<polygon style="fill:black;stroke:black;" points="461.9,-733.2 456,-742 466.1,-738.8 461.9,-733.2"/>
<polygon style="fill:black;stroke:black;" points="553.478,-467.602 549,-458 546.512,-468.299 553.478,-467.602"/>
<text text-anchor="middle" x="569" y="-615.8" style="font-family:Arial;font-size:8.00;">availability</text>
</g>
<!-- tiger_models_CourseSchedule&#45;&gt;tiger_models_CourseRequest -->
<g id="edge30" class="edge"><title>tiger_models_CourseSchedule&#45;&gt;tiger_models_CourseRequest</title>
<path style="fill:none;stroke:black;" d="M397,-724C405,-706 413,-686 421,-669"/>
<polygon style="fill:black;stroke:black;" points="424.137,-670.56 425,-660 417.74,-667.717 424.137,-670.56"/>
<text text-anchor="middle" x="441" y="-698.8" style="font-family:Arial;font-size:8.00;">courserequest_ptr</text>
</g>
<!-- tiger_models_CourseSchedule&#45;&gt;tiger_models_CourseSession -->
<g id="edge36" class="edge"><title>tiger_models_CourseSchedule&#45;&gt;tiger_models_CourseSession</title>
<path style="fill:none;stroke:black;" d="M466,-750C497,-738 532,-723 562,-706 573,-700 584,-692 595,-684"/>
<polygon style="fill:black;stroke:black;" points="463.985,-747.036 456,-754 466.585,-753.536 463.985,-747.036"/>
<polygon style="fill:black;stroke:black;" points="597.1,-686.8 603,-678 592.9,-681.2 597.1,-686.8"/>
<text text-anchor="middle" x="590" y="-698.8" style="font-family:Arial;font-size:8.00;">sessions</text>
</g>
</g>
</svg>
